# xmcd
#
# Track frame offsets: 
#        150
#        16182
#        33704
#        53116
#        76628
#        87488
#        112956
#        123421
#        144834
#        161891
#        182155
#        201275
#
# Disc length: 2968 seconds
#
# Revision: 0
# Processed by: cddbd v1.5.2PL0 Copyright (c) Steve Scherf et al.
# Submitted via: ExactAudioCopy v0.99pb5
#
DISCID=990b960c
DTITLE=Spaleny Jan and ASPM - Zprava odeslana (Bonus Vyber 97-07)
DYEAR=2010
DGENRE=Blues
TTITLE0=Co by tomu rekli lidi
TTITLE1=Tonda B II
TTITLE2=Vajakovi veci
TTITLE3=Davno
TTITLE4=Zrzava palice
TTITLE5=Me muze
TTITLE6=K pomilovani
TTITLE7=V ulicich je dest
TTITLE8=Dokud
TTITLE9=Znam te malo
TTITLE10=az srdce useda
TTITLE11=Dnes opoustim pristav
EXTD=
EXTT0=
EXTT1=
EXTT2=
EXTT3=
EXTT4=
EXTT5=
EXTT6=
EXTT7=
EXTT8=
EXTT9=
EXTT10=
EXTT11=
PLAYORDER=
